<svg width="25" height="24" viewBox="0 0 25 24" fill="none" xmlns="http://www.w3.org/2000/svg">
<path d="M14.1001 15.9156L9.90015 11.7156L14.1001 7.51562" stroke="#E1E7EF" stroke-width="1.8" stroke-linecap="round" stroke-linejoin="round"/>
<path d="M23.4 11.7141C23.4 13.1323 23.1207 14.5367 22.5779 15.847C22.0352 17.1574 21.2397 18.3479 20.2368 19.3508C19.2339 20.3537 18.0433 21.1492 16.733 21.692C15.4227 22.2347 14.0183 22.5141 12.6 22.5141C11.1818 22.5141 9.77738 22.2347 8.46707 21.692C7.15675 21.1492 5.96617 20.3537 4.9633 19.3508C3.96042 18.3479 3.1649 17.1574 2.62215 15.847C2.0794 14.5367 1.80005 13.1323 1.80005 11.7141C1.80005 8.84972 2.9379 6.1027 4.9633 4.07731C6.98869 2.05192 9.73571 0.914062 12.6 0.914062C15.4644 0.914063 18.2114 2.05192 20.2368 4.07731C22.2622 6.1027 23.4 8.84972 23.4 11.7141Z" stroke="#E1E7EF" stroke-width="1.8" stroke-linecap="round" stroke-linejoin="round"/>
</svg>
