<svg width="35" height="35" viewBox="0 0 35 35" fill="none" xmlns="http://www.w3.org/2000/svg">
<rect width="35" height="35" rx="17.5" fill="white" fill-opacity="0.07"/>
<path d="M23.5525 13.2617H19.75V14.3192H23.5675L23.5525 13.2617ZM22.75 20.5367C22.4615 20.7278 22.1209 20.8248 21.775 20.8142C21.546 20.8381 21.3146 20.8144 21.0952 20.7447C20.8759 20.6751 20.6732 20.5608 20.5 20.4092C20.1804 20.0457 20.0138 19.5727 20.035 19.0892H25C25.0354 18.5856 24.9924 18.0796 24.8725 17.5892C24.7558 17.1229 24.5523 16.6827 24.2725 16.2917C23.99 15.9132 23.626 15.603 23.2075 15.3842C22.741 15.1552 22.2271 15.0395 21.7075 15.0467C21.2188 15.0435 20.7343 15.1379 20.2825 15.3242C19.8688 15.4984 19.494 15.7534 19.18 16.0742C18.8668 16.4013 18.6243 16.7893 18.4675 17.2142C18.2993 17.6729 18.2154 18.1582 18.22 18.6467C18.212 19.1422 18.2933 19.6351 18.46 20.1017C18.6021 20.524 18.8264 20.914 19.12 21.2492C19.4244 21.5778 19.7986 21.8341 20.215 21.9992C20.6793 22.1761 21.1732 22.2627 21.67 22.2542C22.3671 22.2759 23.0553 22.0935 23.65 21.7292C24.2511 21.3028 24.6837 20.6791 24.8725 19.9667H23.215C23.1263 20.2023 22.963 20.4025 22.75 20.5367ZM20.1775 17.4467C20.2359 17.2597 20.3328 17.087 20.4619 16.9398C20.5911 16.7925 20.7497 16.6739 20.9275 16.5917C21.1631 16.4862 21.4194 16.435 21.6775 16.4417C21.864 16.4258 22.0517 16.4504 22.2277 16.5138C22.4038 16.5773 22.564 16.678 22.6975 16.8092C22.9527 17.121 23.1163 17.4974 23.17 17.8967H20.0575C20.0696 17.7443 20.0973 17.5935 20.14 17.4467H20.1775ZM16.21 17.0867C16.5917 16.9278 16.9234 16.6686 17.17 16.3367C17.3976 15.9846 17.5103 15.5706 17.4925 15.1517C17.5067 14.7699 17.4322 14.39 17.275 14.0417C17.1425 13.7402 16.9298 13.4807 16.66 13.2917C16.3744 13.0944 16.0495 12.9613 15.7075 12.9017C15.3032 12.8167 14.8907 12.7764 14.4775 12.7817H10V22.2167H14.575C14.9925 22.2166 15.4083 22.1637 15.8125 22.0592C16.1953 21.9594 16.5581 21.7945 16.885 21.5717C17.2019 21.3532 17.4596 21.0594 17.635 20.7167C17.8302 20.3342 17.9257 19.9085 17.9125 19.4792C17.9267 18.9473 17.7775 18.4237 17.485 17.9792C17.1704 17.5322 16.7039 17.2149 16.1725 17.0867H16.21ZM12.0775 14.3942H14.02C14.1985 14.3933 14.3767 14.4084 14.5525 14.4392C14.7147 14.4624 14.8704 14.5186 15.01 14.6042C15.1453 14.6807 15.2549 14.7955 15.325 14.9342C15.4125 15.1003 15.454 15.2867 15.445 15.4742C15.459 15.6356 15.4343 15.7981 15.373 15.9481C15.3117 16.0981 15.2155 16.2313 15.0925 16.3367C14.8241 16.5212 14.5029 16.6134 14.1775 16.5992H12.0775V14.3942ZM15.7075 19.9742C15.6298 20.1267 15.5135 20.256 15.37 20.3492C15.2202 20.4424 15.0552 20.5084 14.8825 20.5442C14.6906 20.5874 14.4942 20.6075 14.2975 20.6042H12.0475V18.0167H14.2975C14.6836 17.9998 15.0649 18.1076 15.385 18.3242C15.5296 18.454 15.6416 18.616 15.712 18.7971C15.7824 18.9782 15.8091 19.1733 15.79 19.3667C15.8095 19.5729 15.7812 19.7807 15.7075 19.9742Z" fill="#F7F9FB"/>
</svg>
