<svg width="30" height="30" viewBox="0 0 30 30" fill="none" xmlns="http://www.w3.org/2000/svg">
<path d="M26.5 14.7156C26.5 8.25362 21.262 3.01562 14.8 3.01562C8.338 3.01562 3.1 8.25362 3.1 14.7156C3.1 21.1776 8.338 26.4156 14.8 26.4156C21.262 26.4156 26.5 21.1776 26.5 14.7156ZM12.664 11.1516C12.505 10.981 12.4185 10.7554 12.4226 10.5222C12.4267 10.289 12.5212 10.0666 12.6861 9.90168C12.851 9.73678 13.0734 9.64233 13.3066 9.63821C13.5397 9.6341 13.7654 9.72065 13.936 9.87962L18.136 14.0796C18.3045 14.2484 18.3992 14.4771 18.3992 14.7156C18.3992 14.9541 18.3045 15.1829 18.136 15.3516L13.936 19.5516C13.8536 19.64 13.7542 19.711 13.6438 19.7602C13.5334 19.8094 13.4143 19.8358 13.2934 19.8379C13.1726 19.8401 13.0525 19.8178 12.9405 19.7726C12.8284 19.7273 12.7266 19.6599 12.6412 19.5745C12.5557 19.489 12.4883 19.3872 12.4431 19.2751C12.3978 19.1631 12.3756 19.043 12.3777 18.9222C12.3798 18.8014 12.4063 18.6822 12.4555 18.5718C12.5047 18.4614 12.5756 18.362 12.664 18.2796L16.228 14.7156L12.664 11.1516Z" fill="#F0F4F8"/>
</svg>
